@startuml "clasesDiseño"

' Cosas bonitas
skinparam linetype ortho
' skinparam class {
'     BackgroundColor #7ACFF5
' }
hide circle
skinparam classAttributeIconSize 0
skinparam roundCorner 0
left to right direction

''' El modelo
package "Modelos de Datos" %lighten("#IndianRed", 40) {
    object "Base" %lighten("#IndianRed", 20) {
        + metadata: MetaData
    }
    note left of "Base"
        Base es la clase base de SQLAlchemy que contiene
        los metadatos comunes a todos los modelos.
    end note

    object "User" %lighten("#IndianRed", 20) {
        + uuid: Integer
        + email: String
        + hashed_password: String
        + verified: Boolean
        + name: String
        + year_of_birth: Integer
    }

    object "Activity" %lighten("#IndianRed", 20) {
        + uuid: Integer
        + date: Date
        + minigame: String
        + duration: Float
        + score: Float
        + activity_points: Float
        + extra_data: String
        + user_email: String
    }

    object "Shape" %lighten("#IndianRed", 20) {
        + uuid: Integer
        + date: Date
        + weight: Float
        + height: Float
        + user_email: String
    }

    ' Relacciones de abstracción entre los modelos
    Base <|-- User : inherits >
    Base <|-- Activity : inherits >
    Base <|-- Shape : inherits >

    ' Un usuario puede tener muchas actividades y formas físicas
    User "1" *--- "0..*" Activity : Realiza >
    User "1" *--- "0..*" Shape : Registra >
}



''' El backend
package "Backend" %lighten("#87CEFB", 20) {
    ' Clase de FastAPI de la que dependan los routers?

    package "API Routers" #LightBlue {

        class "AuthRouter" <<Router>> #LightBlue {
            + login_for_token(form_data: dict) -> Token
            + check_token(token: str) -> str
        }

        class "UserRouter" <<Router>> #LightBlue {
            + create_user(user: UserSchema) -> UserSchema
            + send_verification_email(current_user: UserSchema) -> None
            + verify_user(token: str) -> None
            + get_me(current_user: UserSchema) -> UserSchema
            + update_me(modifications: UserSchema, current_user: UserSchema) -> UserSchema
            + update_email(token: str) -> None
            + delete_me(current_user: UserSchema) -> None
        }

        class "ActivityRouter" <<Router>> #LightBlue {
            + create_activity(activity: ActivitySchema, current_user: UserSchema) -> ActivitySchema
            + get_activities(current_user: UserSchema, minigame_filter: str | None = None, from_date: str | None = None, to_date: str | None = None) -> list[ActivitySchema]
            + delete_activity(uuid: int, current_user: UserSchema) -> None
        }

        class "ShapeRouter" <<Router>> #LightBlue {
            + create_shape(shape: ShapeSchema, current_user: UserSchema) -> ShapeSchema
            + get_shapes(current_user: UserSchema, from_date: str | None = None, to_date: str | None = None) -> list[ShapeSchema]
            + get_current_shape(current_user: UserSchema) -> ShapeSchema | None
            + delete_shape(uuid: int, current_user: UserSchema) -> None
        }

    }
    note right of "API Routers"
        Cabe destacar que los routers <b>no</b> son realmente clases.
        Realmente se trata de funciones agrupadas en módulos que se llaman de manera automática al recibir una petición HTTP.
    end note


    package "DAO" #LightCyan {
        class "ActivityDAO" #LightCyan {
            + create_activity(activity: ActivitySchema, user_email: str) -> ActivitySchema
            + get_activities(user_email: str, minigame_filter: str | None, from_date: datetime, to_date: datetime) -> list[ActivitySchema]
            + delete_activity(uuid: int, user_email: str) -> None
        }

        class "AuthDAO" #LightCyan {
            + get_user(uuid: int) -> UserSchema | None
            + get_user_by_email(email: str) -> UserSchema | None
        }

        class "ShapeDAO" #LightCyan {
            + create_shape(shape: ShapeSchema, user_email: str) -> ShapeSchema
            + get_shapes(user_email: str, from_date: datetime, to_date: datetime) -> list[ShapeSchema]
            + get_current_shape(user_email: str) -> ShapeSchema | None
            + delete_shape(uuid: int, user_email: str) -> None
        }

        class "UserDAO" #LightCyan {
            + create_user(user: UserSchema) -> UserSchema
            + update_user(current_user: UserSchema, modification: UserSchema) -> UserSchema
            + get_user(email: str) -> UserSchema | None
            + verify_user(token: str) -> bool
            + delete_user(current_user: UserSchema) -> None
        }
    }


    package "Schemas" #LightSteelBlue {
        object BaseModel #LightSteelBlue {
            + metadata: MetaData
        }

        object "UserSchema" #LightSteelBlue {
            + email: String
            + name: String
            + year_of_birth: Integer
        }
        object "ActivitySchema" #LightSteelBlue {
            + date: Date
            + minigame: String
            + duration: Float
            + score: Float
            + activity_points: Float
            + extra_data: String
        }
        object "ShapeSchema" #LightSteelBlue {
            + date: Date
            + weight: Float
            + height: Float
        }
        object "TokenSchema" #LightSteelBlue {
            + access_token: String
            + token_type: String
        }
    }

    BaseModel <|- UserSchema : inherits >
    BaseModel <|- ActivitySchema : inherits >
    BaseModel <|- ShapeSchema : inherits >
    BaseModel <|- TokenSchema : inherits >

    note right of "Schemas"
        Los esquemas son clases que definen la estructura
        de los datos que se envían y reciben a través de la API.
        Se utilizan para validar y serializar los datos.
    end note


    '' Relaciones entre clases del backend
    ' Los routers dependen de los DAOs para acceder a la base de datos
    AuthRouter ..> AuthDAO : depends on >
    UserRouter ..> UserDAO : depends on >
    ActivityRouter ..> ActivityDAO : depends on >
    ShapeRouter ..> ShapeDAO : depends on >

    ' Los Routers utilizan los esquemas como argumentos y respuestas
    AuthRouter     .left.> "TokenSchema" : creates, receives, returns >
    UserRouter     ..> "UserSchema" : creates, receives, returns >
    ActivityRouter ..> "ActivitySchema" : creates, receives, returns >
    ShapeRouter    ..> "ShapeSchema" : creates, receives, returns >

    ' Los DAOs utilizan los esquemas para crear y devolver datos
    ActivityDAO .> "ActivitySchema" : creates, returns >
    AuthDAO     .> "UserSchema" : returns >
    ShapeDAO    .> "ShapeSchema" : creates, returns >
    UserDAO     .> "UserSchema" : creates, returns >
}

' Los DAOs gestionan los modelos de datos
ShapeDAO .> "Shape" : creates, manages >
ActivityDAO .> "Activity" : creates, manages >
UserDAO .> "User" : creates, manages >
AuthDAO .> "User" : uses >

''' El frontend (react)
package "React" %lighten("#PaleGreen", 15) {
    class "App" #LightGreen {
        - static singleton: App
        + render()
    }

    class PoseLandmarker #LightGreen {
        + close() : None
        + setOptions(modelType: str, detectionConfidence: float, trackingConfidence: float) : None
        + detect(image: Image) : list[Landmark]
        + detectFromVideo(video: Video) : list[Landmark]
    }
    note top of "PoseLandmarker"
        PoseLandmarker es la clase que se encarga de detectar las posturas del usuario
        a partir de las imágenes o vídeos que recibe del frontend. Utiliza la biblioteca
        MediaPipe para realizar la detección de posturas.
    end note

    package "Components" %lighten("#PaleGreen", 5) {
        '' Páginas de verdad
        class "Dashboard" <<Component>> #LightGreen {}
        class "Login" <<Component>> #LightGreen  {}
        class "Media" <<Component>> #LightGreen  {}
        class "My" <<Component>> #LightGreen  {}
        class "NotFound" <<Component>> #LightGreen  {}

        '' Puramente componentes
        class "LoginForm" <<Component>> #LightGreen  {}
        class "CurrentShapeCard" <<Component>> #LightGreen  {}
        class "DataForm" <<Component>> #LightGreen  {
            + userData: UserData
        }
        class "UserData" <<Component>> #LightGreen  {}
        class "UserStats" <<Component>> #LightGreen  {}
        class "Navbar" <<Component>> #LightGreen  {
            + toplink: NavbarLink
            + mainLinks: list[NavbarLink]
            + bottomLinks: list[NavbarLink]
        }

        '' Relaciones entre componentes
        Dashboard *-- "LoginForm" : uses >

        Login *-- "LoginForm" : uses >

        My *-- "Navbar" : uses >
        My *-- "UserData" : uses >
        My *-- "UserStats" : uses >
        My *-- "Media" : uses >
        My *-- "NotFound" : uses >

        UserData *- "DataForm" : uses >
        UserData *-- "CurrentShapeCard" : uses >
    }

    App *-- "Dashboard" : uses >
    App *-- "Login" : uses >
    App *-- "Media" : uses >
    App *-- "My" : uses >
    App *-- "NotFound" : uses >

    class "ApiClient" #LightGreen  {
        - auth_token: str
        ---
        ...
    }
    note right of "ApiClient"
        El APIClient es una clase que se encarga de abstraer las peticiones HTTP
        a la API del backend. Se genera automaticamente a partir de la
        especificación OpenAPI del backend, que FastAPI provee.
        Contiene métodos para llamar a todas las rutas de la API.
    end note

    ' Media posee a mediapipe
    Media --> PoseLandmarker : creates, uses >

    ' El Cliente de Unity se comunica con Media
    class UnityClient #LightGreen {
        - unity_location: String
        + sendUnityMessage(gameobject: String, metod: String, data: dict) : None
    }

    Media ..> UnityClient : uses >

    ' La App crea y gestiona el ApiClient
    App .> ApiClient : creates >

    ' Los componentes dependen del ApiClient para hacer peticiones a la API
    LoginForm ..> ApiClient : uses >
    Media ..> ApiClient : uses >
    CurrentShapeCard .> ApiClient : uses >
    DataForm ..> ApiClient : uses >
    Dashboard ..> ApiClient : uses >
    Login ..> ApiClient : uses >
    My ..> ApiClient : uses >
    UserStats ..> ApiClient : uses >
}

' Relaciones entre el frontend y el backend
App ..> AuthRouter : uses >
App ..> UserRouter : uses >
App ..> ActivityRouter : uses >
App ..> ShapeRouter : uses >
note left of App
    Los componentes del frontend utilizan la API a través del
    APIClient, encargado de abstraer las peticiones HTTP. En el
    diagrama se muestra solo una relación entre la App y las
    rutas para hacer el diagrama más legible.
end note

''' El juego
package "Unity" #LightYellow {
    class "GameController" #BUSINESS {
        - static singleton: GameController
        - JSConnector: JSConnector
        - rinlBody: RINLBody
        - activityData: dict
        - calibrationData: dict

        + GetJSConnector() : JSConnector
        + GetRINLBody() : RINLBody
        + GetCalibrationData() : dict
        + Pause() : None
        + Resume() : None
        + ChangeScene(sceneName: str) : None
        + SetActivityData(minigame: str, duration: int, score: int, extra_data: str) : None
        + GetActivityData() : dict
        + SendActivityData() : None
    }
    note right of "GameController"
        El GameController es la clase principal del juego. Se encarga de gestionar
        el estado del juego, las escenas y la comunicación con el frontend a través
        del JSConnector.
    end note

    class "RINLBody" #BUSINESS {
        - activityPoints : int

        + GetActivityPoints() : int
        + ResetActivityPoints() : None
    }
    note right of "RINLBody"
        RINLBody es la clase que se encarga de representar el cuerpo del usuario
        a partir de las posturas que el JSConector recibe del frontend.
    end note

    class "SceneScript" #BUSINESS {
        + static instance: SceneScript
        + objects: list[GameObject]
        + animator: Animator

        + GetObject(name: str) : GameObject | None
        + SwitchScene(sceneName: str) : None
    }
    note right of "SceneScript"
        El SceneScript es una clase que se encarga de gestionar los objetos
        de la escena y cambiar entre escenas. Se utiliza para cargar objetos,
        animaciones y llevar el hilo conductor del juego.
    end note

    class "JSConnector" #BUSINESS {
        - latestLandmarks: list[Landmark]
        - imageSize: Vector2

        - SendToReact(type: str, payload: str) : None
        - SendAck(functionName: str)
        + GetImageSize() : Vector2
        + GetLatestLandmarks() : list[Landmark]
        + SetBodyPosotion(landmarks: str) : None
        + SetVideoSize(sizeString: str) : None
        + SetCurrentShape(shapeString: str) : None
        + SetCurrentUser(userString: str) : None
        + CreateActivity(activity: dict) : None
    }
    note right of "JSConnector"
        El JSConnector es una clase que se encarga de enviar y recibir mensajes
        entre el juego y el frontend. Se utiliza tanto para recibir las posturas
        en el frontend como para enviar los datos de las actividades realizadas
        en el juego.
    end note

    package "BallonGame" #BUSINESS {}
    package "DodgeGame" #BUSINESS {}

    ' Relaciones entre clases del juego
    GameController -> JSConnector : uses >
    RINLBody ..> JSConnector : uses >
    RINLBody ..> GameController : uses >
    SceneScript ..> GameController : uses >

    ' Relaciones entre los paquetes de juego
    SceneScript .> BallonGame : manages >
    SceneScript .> DodgeGame : manages >
}

'' Relaciones entre el juego y el frontend
JSConnector <..down.> UnityClient : uses (A través de eventos de JavaScript)

@enduml
